<svg aria-hidden="true" style="position: absolute; width: 0; height: 0; overflow: hidden;" version="1.1" xmlns="http://www.w3.org/2000/svg" xmlns:xlink="http://www.w3.org/1999/xlink">
<defs>
<symbol id="icon-telegram-link" viewBox="0 0 33 32">
<path fill="#fea5bb" style="fill: var(--color1, #fea5bb)" d="M32.235 16c0 8.837-7.163 16-16 16s-16-7.163-16-16c0-8.837 7.163-16 16-16s16 7.163 16 16z"></path>
<path fill="#fff" style="fill: var(--color2, #fff)" d="M13.102 18.375l-0.318 4.169c0.454 0 0.651-0.182 0.887-0.401l2.13-1.9 4.414 3.017c0.81 0.421 1.38 0.199 1.598-0.695l2.898-12.673c0.257-1.117-0.433-1.554-1.222-1.28l-17.032 6.086c-1.162 0.421-1.145 1.026-0.198 1.3l4.355 1.264 10.115-5.907c0.476-0.294 0.909-0.131 0.553 0.163l-8.182 6.857z"></path>
</symbol>
<symbol id="icon-facebook-link" viewBox="0 0 33 32">
<path fill="#fea5bb" style="fill: var(--color1, #fea5bb)" d="M16.471 32c8.837 0 16-7.163 16-16s-7.163-16-16-16c-8.837 0-16 7.163-16 16s7.163 16 16 16z"></path>
<path fill="#fff" style="fill: var(--color2, #fff)" d="M20.916 15.981h-2.61v9.618h-3.955v-9.618h-1.881v-3.38h1.881v-2.188c0-1.564 0.739-4.014 3.99-4.014l2.929 0.012v3.281h-2.125c-0.349 0-0.839 0.175-0.839 0.921v1.989h2.955l-0.346 3.377z"></path>
</symbol>
<symbol id="icon-github-link" viewBox="0 0 32 32">
<path fill="#fea5bb" style="fill: var(--color1, #fea5bb)" d="M32 16c0 8.837-7.163 16-16 16s-16-7.163-16-16c0-8.837 7.163-16 16-16s16 7.163 16 16z"></path>
<path fill="#fff" style="fill: var(--color2, #fff)" d="M16 6.588c-5.169 0-9.412 4.242-9.412 9.412 0 4.411 3.095 8.418 7.206 9.412v-3.114c-0.407 0.089-0.782 0.092-1.197-0.030-0.556-0.164-1.008-0.535-1.344-1.1-0.214-0.361-0.593-0.752-0.988-0.723l-0.097-1.099c0.855-0.073 1.595 0.521 2.034 1.259 0.195 0.328 0.419 0.52 0.708 0.605 0.278 0.082 0.577 0.043 0.926-0.080 0.088-0.698 0.407-0.959 0.649-1.326v-0c-2.451-0.366-3.428-1.666-3.816-2.693-0.514-1.363-0.238-3.066 0.671-4.142 0.018-0.021 0.050-0.076 0.037-0.114-0.417-1.258 0.091-2.3 0.11-2.41 0.481 0.142 0.559-0.143 2.088 0.786l0.264 0.159c0.111 0.066 0.076 0.028 0.186 0.020 0.639-0.174 1.312-0.269 1.975-0.278 0.668 0.009 1.337 0.104 2.002 0.285l0.086 0.009c-0.008-0.001 0.023-0.005 0.075-0.036 1.911-1.157 1.842-0.779 2.354-0.946 0.018 0.111 0.519 1.169 0.107 2.411-0.056 0.171 1.657 1.739 0.708 4.256-0.388 1.027-1.365 2.328-3.816 2.693v0c0.314 0.479 0.692 0.734 0.69 1.722v3.887c4.111-0.993 7.206-5 7.206-9.412 0-5.169-4.242-9.412-9.412-9.412v0z"></path>
</symbol>
<symbol id="icon-rewiew-link-home" viewBox="0 0 35 32">
<path d="M34.472 15.381c0.633-0.649 0.572-1.644-0.136-2.222l-15.601-12.734c-0.708-0.578-1.843-0.566-2.537 0.027l-15.654 13.386c-0.693 0.593-0.727 1.587-0.075 2.219l0.392 0.381c0.651 0.632 1.704 0.707 2.349 0.168l1.17-0.977v14.308c0 0.878 0.763 1.588 1.703 1.588h6.102c0.94 0 1.703-0.711 1.703-1.588v-10.010h7.783v10.010c-0.014 0.877 0.659 1.588 1.6 1.588h6.467c0.94 0 1.703-0.711 1.703-1.588v-14.106c0 0 0.323 0.264 0.722 0.591s1.234 0.065 1.866-0.585l0.444-0.455z"></path>
</symbol>
<symbol id="icon-Burger-btn" viewBox="0 0 32 32">
<path stroke-linejoin="miter" stroke-linecap="butt" stroke-miterlimit="4" stroke-width="1.6" d="M0 6.4h32"></path>
<path stroke-linejoin="miter" stroke-linecap="butt" stroke-miterlimit="4" stroke-width="1.6" d="M0 16h32"></path>
<path stroke-linejoin="miter" stroke-linecap="butt" stroke-miterlimit="4" stroke-width="1.6" d="M0 25.6h32"></path>
</symbol>
<symbol id="icon-Burger-btn-close" viewBox="0 0 32 32">
<path stroke-linejoin="miter" stroke-linecap="butt" stroke-miterlimit="4" stroke-width="2" d="M2.519 2l26.963 28"></path>
<path stroke-linejoin="miter" stroke-linecap="butt" stroke-miterlimit="4" stroke-width="2" d="M2 29.481l28-26.963"></path>
</symbol>
<symbol id="icon-arrow" viewBox="0 0 26 32">
<path fill="none" stroke="#d41443" style="stroke: var(--color1, #d41443)" stroke-linejoin="round" stroke-linecap="round" stroke-miterlimit="4" stroke-width="6.4" d="M5.171 3.2l14.17 12.8-14.17 12.8"></path>
</symbol>

</defs>
</svg>
